<svg width="60" height="60" viewBox="0 0 60 60" fill="none" xmlns="http://www.w3.org/2000/svg">
<rect width="60" height="60" fill="black"/>
<path d="M36.0002 43C36.0002 43.2652 35.8948 43.5196 35.7073 43.7071C35.5197 43.8946 35.2654 44 35.0002 44H25.0002C24.7349 44 24.4806 43.8946 24.2931 43.7071C24.1055 43.5196 24.0002 43.2652 24.0002 43C24.0002 42.7348 24.1055 42.4804 24.2931 42.2929C24.4806 42.1053 24.7349 42 25.0002 42H35.0002C35.2654 42 35.5197 42.1053 35.7073 42.2929C35.8948 42.4804 36.0002 42.7348 36.0002 43ZM41.0002 27C41.0045 28.667 40.6279 30.313 39.8991 31.8124C39.1704 33.3117 38.1087 34.6247 36.7952 35.6512C36.5496 35.8395 36.3502 36.0814 36.2125 36.3585C36.0747 36.6356 36.0021 36.9405 36.0002 37.25V38C36.0002 38.5304 35.7894 39.0391 35.4144 39.4142C35.0393 39.7893 34.5306 40 34.0002 40H26.0002C25.4697 40 24.961 39.7893 24.586 39.4142C24.2109 39.0391 24.0002 38.5304 24.0002 38V37.25C24 36.9442 23.9297 36.6426 23.7947 36.3683C23.6597 36.0939 23.4635 35.8542 23.2214 35.6675C21.9112 34.647 20.8502 33.3419 20.1189 31.8509C19.3876 30.3598 19.005 28.722 19.0002 27.0612C18.9677 21.1037 23.7827 16.1425 29.7352 16C31.2019 15.9646 32.6608 16.2231 34.0261 16.76C35.3914 17.297 36.6355 18.1016 37.6852 19.1266C38.7349 20.1516 39.5689 21.3762 40.1382 22.7283C40.7075 24.0805 41.0006 25.5329 41.0002 27ZM39.0002 27C39.0005 25.7996 38.7607 24.6112 38.2949 23.5048C37.8291 22.3985 37.1466 21.3965 36.2877 20.5579C35.4288 19.7192 34.4108 19.0609 33.2936 18.6216C32.1765 18.1823 30.9827 17.971 29.7827 18C24.9077 18.115 20.9739 22.1737 21.0002 27.0487C21.0047 28.407 21.3182 29.7464 21.9167 30.9656C22.5153 32.1848 23.3833 33.252 24.4552 34.0862C24.937 34.4608 25.3267 34.9406 25.5945 35.489C25.8623 36.0374 26.001 36.6397 26.0002 37.25V38H34.0002V37.25C34.0016 36.638 34.1427 36.0344 34.4128 35.4852C34.683 34.9361 35.075 34.4559 35.5589 34.0812C36.634 33.241 37.503 32.1663 38.0994 30.939C38.6958 29.7118 39.0039 28.3645 39.0002 27ZM36.9864 25.8325C36.7271 24.3841 36.0303 23.0499 34.9897 22.0096C33.9492 20.9693 32.6149 20.2727 31.1664 20.0137C31.0369 19.9919 30.9043 19.9958 30.7763 20.0252C30.6483 20.0546 30.5274 20.1089 30.4203 20.185C30.3133 20.2612 30.2223 20.3577 30.1526 20.469C30.0829 20.5803 30.0357 20.7042 30.0139 20.8337C29.9921 20.9633 29.996 21.0958 30.0254 21.2238C30.0548 21.3518 30.1091 21.4728 30.1852 21.5798C30.2614 21.6868 30.3578 21.7778 30.4691 21.8475C30.5804 21.9173 30.7044 21.9644 30.8339 21.9862C32.9052 22.335 34.6627 24.0925 35.0139 26.1675C35.0535 26.4004 35.1742 26.6118 35.3548 26.7641C35.5353 26.9165 35.7639 27.0001 36.0002 27C36.0567 26.9997 36.1131 26.9951 36.1689 26.9862C36.4303 26.9416 36.6633 26.795 36.8166 26.5786C36.9699 26.3623 37.031 26.0939 36.9864 25.8325Z" fill="white"/>
</svg>
